<svg version="1.1" preserveAspectRatio="none" xmlns="http://www.w3.org/2000/svg" width="500" height="500" viewBox="0 0 500 500"><rect width="100%" height="100%" fill="#E1E1E1" fill-opacity="0"/><svg viewBox="1005.7424 653.4966 447.2908 120" width="333" height="89.33785358429013" x="83.5px" y="205.3311px" xmlns="http://www.w3.org/2000/svg" xmlns:xlink="http://www.w3.org/1999/xlink" preserveAspectRatio="none"><defs></defs><style>.background {fill:#E1E1E1;fill-opacity:1;}.companyName {fill:#03D069;fill-opacity:1;}.icon3 {fill:#B6B5B5;fill-opacity:1;}.icon3-str {stroke:#B6B5B5;stroke-opacity:1;}.shape {fill:#F1F1F1;fill-opacity:1;}.shapeStroke-str {stroke:#03D069;stroke-opacity:1;}</style><g opacity="1" transform="rotate(0 1005.7424 653.4966)">
<svg width="120.0004" height="120" x="1005.7424" y="653.4966" version="1.1" preserveAspectRatio="none" viewBox="0 0 120.0004 120">
  <defs><rect x="0" y="0" width="120.0004" height="120" rx="10px" ry="10px" id="id-5kldYRpCP1684793064675"></rect></defs><use class="companyName shapeStroke-str" style="stroke-width:0;" xlink:href="#id-5kldYRpCP1684793064675"></use>
</svg>
</g><g opacity="1" transform="rotate(0 1020.7424 682.2421)">
<svg width="90.0004" height="62.5089" x="1020.7424" y="682.2421" version="1.1" preserveAspectRatio="none" viewBox="5.000614643096924 18.746463775634766 89.99940490722656 62.508174896240234">
  <g transform="matrix(1 0 0 1 0 0)" class="background"><title>12</title><path d="M73.03926,81.252a6.18145,6.18145,0,0,1-6.25714-7.314,8.74545,8.74545,0,0,1,8.371-7.31416,6.18159,6.18159,0,0,1,6.25714,7.31416A8.74533,8.74533,0,0,1,73.03926,81.252Zm-41.78366-7.314a6.18163,6.18163,0,0,0-6.25714-7.31416,8.74545,8.74545,0,0,0-8.371,7.31416,6.18151,6.18151,0,0,0,6.25714,7.314A8.74544,8.74544,0,0,0,31.2556,73.93805ZM5.032,43.96532a3.05343,3.05343,0,0,1,3.02209-2.6168H36.31427a2.545,2.545,0,0,0,2.53144-2.80677,2.64419,2.64419,0,0,0-2.67625-2.28234l-20.55888-.09386a3.05347,3.05347,0,1,1,0-6.10693l32.91754.09387a2.545,2.545,0,0,0,2.53145-2.80678,2.64421,2.64421,0,0,0-2.67626-2.28233H15.27139l.31148-2.15566a4.97391,4.97391,0,0,1,4.761-4.15975H70.95591a3.51563,3.51563,0,0,1,3.55871,4.15975L72.99534,33.4209H83.90952a5.06527,5.06527,0,0,1,4.71457,3.258l5.69474,14.83332a10.25207,10.25207,0,0,1,.57575,5.14117L92.96486,70.00729a3.58139,3.58139,0,0,1-3.42813,2.99532H85.23945a9.25223,9.25223,0,0,0-8.621-10.07733c-6.00529-.514-12.00257,3.99774-13.39518,10.07733H35.08573a9.25241,9.25241,0,0,0-8.62614-10.08316c-6.006-.51115-12.00145,4.00332-13.39095,10.08316H11.339a2.5315,2.5315,0,0,1-2.56244-2.99532l2.52349-17.46274H24.10042a2.5449,2.5449,0,0,0,2.53138-2.80677,2.64409,2.64409,0,0,0-2.67619-2.28233H8.05408A3.05346,3.05346,0,0,1,5.032,43.96532Zm64.996,9.99017,21.1388.04373L85.12359,38.00109a1.30424,1.30424,0,0,0-1.21407-.83853H72.45468Z"></path></g>
</svg>
</g><g opacity="1" transform="rotate(0 1149.7428 653.4966)">
<svg width="303.2904" height="120" x="1149.7428" y="653.4966" version="1.1" preserveAspectRatio="none" viewBox="2.8 -28 173.28 68.56">
  <g transform="matrix(1 0 0 1 0 0)" class="companyName"><path id="id-D6z1nYkh12" d="M11.40 0L11.40-21.72L2.80-21.72L2.80-28L27.88-28L27.88-21.72L19.32-21.72L19.32 0L11.40 0Z M38.68-6.12L53.32-6.12L53.32 0L30.84 0L30.84-28L52.80-28L52.80-21.88L38.68-21.88L38.68-17.16L51.12-17.16L51.12-11.24L38.68-11.24L38.68-6.12Z M66.68-6.28L81.40-6.28L81.40 0L56.32 0L56.32-4.96L70.44-21.72L56.68-21.72L56.68-28L80.80-28L80.80-23.04L66.68-6.28Z M90.84 0L90.84-21.72L82.24-21.72L82.24-28L107.32-28L107.32-21.72L98.76-21.72L98.76 0L90.84 0Z M118.12-6.12L132.76-6.12L132.76 0L110.28 0L110.28-28L132.24-28L132.24-21.88L118.12-21.88L118.12-17.16L130.56-17.16L130.56-11.24L118.12-11.24L118.12-6.12Z M146.12-6.28L160.84-6.28L160.84 0L135.76 0L135.76-4.96L149.88-21.72L136.12-21.72L136.12-28L160.24-28L160.24-23.04L146.12-6.28Z M35.36 40L28.08 40L28 25.16L20.80 37.24L17.28 37.24L10.12 25.56L10.12 40L2.80 40L2.80 12L9.32 12L19.16 28.16L28.76 12L35.28 12L35.36 40Z M55.08 40.56Q50.64 40.56 47.10 38.68Q43.56 36.80 41.54 33.48Q39.52 30.16 39.52 26L39.52 26Q39.52 21.84 41.54 18.52Q43.56 15.20 47.10 13.32Q50.64 11.44 55.08 11.44L55.08 11.44Q59.52 11.44 63.06 13.32Q66.60 15.20 68.62 18.52Q70.64 21.84 70.64 26L70.64 26Q70.64 30.16 68.62 33.48Q66.60 36.80 63.06 38.68Q59.52 40.56 55.08 40.56L55.08 40.56ZM55.08 34Q57.20 34 58.92 33Q60.64 32 61.64 30.18Q62.64 28.36 62.64 26L62.64 26Q62.64 23.64 61.64 21.82Q60.64 20 58.92 19Q57.20 18 55.08 18L55.08 18Q52.96 18 51.24 19Q49.52 20 48.52 21.82Q47.52 23.64 47.52 26L47.52 26Q47.52 28.36 48.52 30.18Q49.52 32 51.24 33Q52.96 34 55.08 34L55.08 34Z M94.40 12L102.24 12L90.24 40L82.44 40L70.48 12L79.04 12L86.64 30.24L94.40 12Z M103.88 40L103.88 12L111.80 12L111.80 40L103.88 40Z M136.32 12L144.08 12L144.08 40L137.56 40L125.20 25.08L125.20 40L117.44 40L117.44 12L123.96 12L136.32 26.92L136.32 12Z M168.44 33.08L168.44 25.40L175.44 25.40L175.44 37Q173.04 38.72 169.92 39.64Q166.80 40.56 163.68 40.56L163.68 40.56Q159.28 40.56 155.76 38.70Q152.24 36.84 150.24 33.52Q148.24 30.20 148.24 26L148.24 26Q148.24 21.80 150.24 18.48Q152.24 15.16 155.80 13.30Q159.36 11.44 163.84 11.44L163.84 11.44Q167.76 11.44 170.88 12.76Q174.00 14.08 176.08 16.56L176.08 16.56L171.04 21.12Q168.20 18 164.24 18L164.24 18Q160.64 18 158.44 20.18Q156.24 22.36 156.24 26L156.24 26Q156.24 28.32 157.24 30.14Q158.24 31.96 160.04 32.98Q161.84 34 164.16 34L164.16 34Q166.44 34 168.44 33.08L168.44 33.08Z"/></g>
</svg>
</g></svg></svg>