<svg version="1.1" preserveAspectRatio="none" xmlns="http://www.w3.org/2000/svg" width="500" height="500" viewBox="0 0 500 500"><rect width="100%" height="100%" fill="#F7F7F7" fill-opacity="1"/><svg viewBox="404.6262 295.3019 346.7296 170.0188" width="333" height="163.28649299050326" x="83.5px" y="168.3568px" xmlns="http://www.w3.org/2000/svg" xmlns:xlink="http://www.w3.org/1999/xlink" preserveAspectRatio="none"><defs></defs><style>.companyName {fill:#2B2B2B;fill-opacity:1;}.icon1 {fill:#2B2B2B;fill-opacity:1;}.icon2 {fill:#59C65B;fill-opacity:1;}.icon3 {fill:#6D6D6D;fill-opacity:1;}.icon3-str {stroke:#6D6D6D;stroke-opacity:1;}</style><g opacity="1" transform="rotate(0 525.9816 295.3019)">
<svg width="104.0188" height="104.0188" x="525.9816" y="295.3019" version="1.1" preserveAspectRatio="none" viewBox="6.651000022888184 6.651000022888184 86.69799041748047 86.69799041748047">
  <g transform="matrix(1 0 0 1 0 0)" class="icon1"><g display="none"><path display="inline" d="M50,65.297c-8.435,0-15.297-6.862-15.297-15.297S41.565,34.703,50,34.703S65.297,41.565,65.297,50   S58.435,65.297,50,65.297z"></path><path display="inline" d="M50,77.812c-21.966,0-39.136-25.189-39.856-26.262c-0.63-0.938-0.63-2.163,0-3.102   C10.864,47.377,28.034,22.187,50,22.187s39.136,25.189,39.856,26.262c0.63,0.938,0.63,2.163,0,3.102   C89.136,52.623,71.966,77.812,50,77.812z M15.886,50C19.864,55.287,33.888,72.25,50,72.25S80.136,55.287,84.114,50   C80.136,44.713,66.112,27.75,50,27.75S19.864,44.713,15.886,50z"></path></g><g display="none"><path display="inline" d="M26.777,42.904c-8.893,0-16.127-7.235-16.127-16.127s7.235-16.127,16.127-16.127   s16.127,7.235,16.127,16.127S35.669,42.904,26.777,42.904z M26.777,19.681c-3.912,0-7.096,3.184-7.096,7.096   s3.184,7.096,7.096,7.096s7.096-3.184,7.096-7.096S30.689,19.681,26.777,19.681z"></path><path display="inline" d="M73.223,89.351c-8.893,0-16.127-7.235-16.127-16.127s7.235-16.127,16.127-16.127   s16.127,7.235,16.127,16.127S82.116,89.351,73.223,89.351z M73.223,66.127c-3.912,0-7.096,3.184-7.096,7.096   s3.184,7.096,7.096,7.096s7.096-3.184,7.096-7.096S77.136,66.127,73.223,66.127z"></path><path display="inline" d="M15.165,89.351c-1.155,0-2.311-0.441-3.193-1.323c-1.764-1.763-1.764-4.623,0-6.385l61.961-61.962H61.612   c-2.493,0-4.516-2.022-4.516-4.516s2.022-4.516,4.516-4.516h23.223c1.827,0,3.472,1.1,4.172,2.787   c0.699,1.688,0.312,3.63-0.979,4.921l-69.67,69.67C17.476,88.91,16.32,89.351,15.165,89.351z"></path></g><g display="none"><path display="inline" d="M91.884,34.128c0-1.218-0.987-2.204-2.204-2.204H59.992c-1.093-8.929-8.708-15.872-17.928-15.872   c-9.967,0-18.076,8.109-18.076,18.076c0,6.331,3.278,11.902,8.218,15.132C18.28,53.494,8.116,66.452,8.116,81.744   c0,1.218,0.987,2.204,2.204,2.204h63.488c1.218,0,2.204-0.987,2.204-2.204c0-2.832-0.365-5.638-1.055-8.359   c1.799,1.627,4.175,2.627,6.786,2.627c5.592,0,10.14-4.549,10.14-10.14c0,0,0,0,0,0l0,0V34.128z M87.475,57.515   c-1.632-1.123-3.605-1.783-5.732-1.783c-2.557,0-4.889,0.959-6.675,2.526c-0.668-0.397-1.353-0.758-2.06-1.063   c1.853-1.838,3.003-4.384,3.003-7.194c0-5.592-4.549-10.14-10.14-10.14S55.732,44.408,55.732,50c0,2.818,1.157,5.369,3.019,7.208   c-3.139,1.351-5.88,3.575-7.84,6.459h-6.641V36.333h43.207V57.515z M71.852,63.668H56.722c2.48-2.231,5.732-3.527,9.149-3.527   c2.334,0,4.573,0.585,6.577,1.691C72.193,62.417,71.994,63.031,71.852,63.668z M60.14,50c0-3.16,2.571-5.732,5.732-5.732   S71.603,46.84,71.603,50c0,3.16-2.571,5.732-5.732,5.732S60.14,53.16,60.14,50z M28.397,34.128c0-7.536,6.131-13.667,13.668-13.667   c6.784,0,12.414,4.974,13.473,11.463H42.064c-1.218,0-2.204,0.987-2.204,2.204v13.473C33.37,46.542,28.397,40.912,28.397,34.128z    M12.606,79.539c1.078-14.534,12.72-26.166,27.254-27.245v13.577c0,1.218,0.987,2.204,2.204,2.204h26.185   c1.854,3.55,2.974,7.454,3.273,11.463H12.606z M81.744,71.603c-3.16,0-5.732-2.571-5.732-5.732c0-3.16,2.571-5.732,5.732-5.732   c3.16,0,5.732,2.571,5.732,5.732C87.475,69.032,84.904,71.603,81.744,71.603z"></path></g><g display="none"><path display="inline" d="M42.083,36.146h-7.917c-1.093,0-1.979,0.886-1.979,1.979c0,1.093,0.886,1.979,1.979,1.979h7.917   c1.093,0,1.979-0.886,1.979-1.979C44.063,37.032,43.176,36.146,42.083,36.146z"></path><path display="inline" d="M42.083,44.063h-7.917c-1.093,0-1.979,0.886-1.979,1.979c0,1.093,0.886,1.979,1.979,1.979h7.917   c1.093,0,1.979-0.886,1.979-1.979C44.063,44.949,43.176,44.063,42.083,44.063z"></path><path display="inline" d="M42.083,51.979h-7.917c-1.093,0-1.979,0.886-1.979,1.979s0.886,1.979,1.979,1.979h7.917   c1.093,0,1.979-0.886,1.979-1.979S43.176,51.979,42.083,51.979z"></path><path display="inline" d="M57.917,40.104h7.917c1.093,0,1.979-0.886,1.979-1.979c0-1.093-0.886-1.979-1.979-1.979h-7.917   c-1.093,0-1.979,0.886-1.979,1.979C55.938,39.218,56.824,40.104,57.917,40.104z"></path><path display="inline" d="M81.667,36.146h-5.937v-5.938c0-1.093-0.886-1.979-1.979-1.979H57.917h0h0l0,0   c-3.242,0-6.112,1.567-7.917,3.976c-1.805-2.41-4.674-3.976-7.917-3.976h0H26.25c-1.093,0-1.979,0.886-1.979,1.979v5.938h-5.938   c-1.093,0-1.979,0.886-1.979,1.979v31.667c0,1.093,0.886,1.979,1.979,1.979h23.75c1.093,0,1.979-0.886,1.979-1.979   c0-1.093-0.886-1.979-1.979-1.979H20.313V40.104h3.958v21.771c0,1.093,0.886,1.979,1.979,1.979h15.833   c3.279,0,5.937,2.658,5.937,5.938c0,1.093,0.886,1.979,1.979,1.979s1.979-0.886,1.979-1.979c0-3.279,2.658-5.938,5.937-5.938H73.75   c1.093,0,1.979-0.886,1.979-1.979V40.104h3.958v27.708H57.917c-1.093,0-1.979,0.886-1.979,1.979c0,1.093,0.886,1.979,1.979,1.979   h23.75c1.093,0,1.979-0.886,1.979-1.979V38.125C83.646,37.032,82.76,36.146,81.667,36.146z M57.917,59.896L57.917,59.896   L57.917,59.896c-2.231,0-4.282,0.747-5.938,1.993V38.125h-3.958v23.763c-1.655-1.245-3.707-1.993-5.937-1.993h0H28.229V32.188   h13.854c3.279,0,5.937,2.658,5.937,5.937l1.979,0l1.979,0c0-3.279,2.658-5.937,5.937-5.937h13.854v27.708H57.917L57.917,59.896z"></path><path display="inline" d="M65.833,44.063h-7.917c-1.093,0-1.979,0.886-1.979,1.979c0,1.093,0.886,1.979,1.979,1.979h7.917   c1.093,0,1.979-0.886,1.979-1.979C67.812,44.949,66.926,44.063,65.833,44.063z"></path><path display="inline" d="M65.833,51.979h-7.917c-1.093,0-1.979,0.886-1.979,1.979s0.886,1.979,1.979,1.979h7.917   c1.093,0,1.979-0.886,1.979-1.979S66.926,51.979,65.833,51.979z"></path></g><g display="none"><path display="inline" d="M91.346,69.528l-9.868-19.735v-8.066c0-0.562-0.279-1.087-0.744-1.402   c-0.465-0.315-1.057-0.378-1.578-0.17l-21.165,8.466c-0.492,0.197-0.864,0.614-1.004,1.126l-2.053,7.511H30.512v-0.069   c0-0.935-0.758-1.693-1.693-1.693c-0.935,0-1.693,0.758-1.693,1.693v0.069h-0.068c-0.935,0-1.693,0.758-1.693,1.693   c0,0.935,0.758,1.693,1.693,1.693h9.644v11.006c0,0.935,0.758,1.693,1.693,1.693h5.595c0.935,0,1.693-0.758,1.693-1.693v-5.411   h6.381l2.927,6.14c0.281,0.589,0.876,0.965,1.528,0.965h4.402c0.935,0,1.693-0.758,1.693-1.693v-4.553L77.11,73.21   c0.211,0.089,0.435,0.133,0.658,0.133c0.328,0,0.654-0.096,0.936-0.282c0.473-0.314,0.757-0.843,0.757-1.411V58.951   c0-0.935-0.758-1.693-1.693-1.693H58.445l1.587-5.805l18.06-7.224v4.745l-11.541,3.847c-0.887,0.296-1.366,1.254-1.071,2.142   c0.236,0.71,0.897,1.158,1.606,1.158c0.178,0,0.358-0.028,0.536-0.087l11.306-3.769l9.39,18.78   c0.297,0.593,0.895,0.936,1.516,0.936c0.254,0,0.513-0.058,0.756-0.179C91.425,71.382,91.764,70.365,91.346,69.528z M59.228,62.852   H45.682v-2.208h13.545V62.852z M42.296,69.956h-2.208v-9.312h2.208v3.901V69.956z M57.587,69.956l-1.772-3.718h3.413v3.718H57.587z    M76.075,69.098l-13.461-5.676v-2.778h13.461V69.098z"></path><path display="inline" d="M50.155,38.51h5.726l-3.008,6.015c-0.263,0.525-0.234,1.148,0.074,1.648   c0.309,0.499,0.854,0.803,1.44,0.803h4.233c0.935,0,1.693-0.758,1.693-1.693c0-0.935-0.758-1.693-1.693-1.693h-1.493l1.379-2.759   c1.083,1.172,2.629,1.912,4.347,1.912c2.679,0,4.946-1.788,5.677-4.233h15.488c0.935,0,1.693-0.758,1.693-1.693   c0-0.935-0.758-1.693-1.693-1.693h-6.773v-6.773c0-0.522-0.24-1.014-0.651-1.335c-0.411-0.321-0.948-0.435-1.453-0.308   l-8.055,2.014l-8.055-2.014c-0.505-0.127-1.042-0.013-1.453,0.308c-0.411,0.321-0.651,0.813-0.651,1.335v6.773h-6.773   c-0.935,0-1.693,0.758-1.693,1.693C48.461,37.752,49.219,38.51,50.155,38.51z M62.853,39.356c-0.748,0-1.414-0.331-1.879-0.847   h3.758C64.267,39.026,63.601,39.356,62.853,39.356z M60.314,30.519l6.362,1.59c0.27,0.067,0.552,0.067,0.821,0l6.362-1.59v4.604   H60.314V30.519z"></path><path display="inline" d="M21.67,61.986l-4.233,4.233c-0.661,0.661-0.661,1.733,0,2.394c0.33,0.331,0.764,0.496,1.197,0.496   c0.433,0,0.867-0.165,1.197-0.496l4.233-4.233c0.661-0.661,0.661-1.733,0-2.394C23.403,61.325,22.33,61.325,21.67,61.986z"></path><path display="inline" d="M19.831,49.288c-0.661-0.661-1.734-0.661-2.394,0c-0.661,0.661-0.661,1.733,0,2.394l4.233,4.233   c0.33,0.331,0.764,0.496,1.197,0.496c0.433,0,0.867-0.165,1.197-0.496c0.661-0.661,0.661-1.733,0-2.394L19.831,49.288z"></path><path display="inline" d="M20.327,58.951c0-0.935-0.758-1.693-1.693-1.693h-8.466c-0.935,0-1.693,0.758-1.693,1.693   c0,0.935,0.758,1.693,1.693,1.693h8.466C19.569,60.644,20.327,59.886,20.327,58.951z"></path></g><g display="none"><path display="inline" d="M50,78.848c-2.224,0-4.033-1.809-4.033-4.033s1.809-4.033,4.033-4.033c2.223,0,4.032,1.809,4.032,4.033   S52.224,78.848,50,78.848z M50,73.873c-0.519,0-0.942,0.422-0.942,0.942c0,0.519,0.422,0.942,0.942,0.942   c0.519,0,0.941-0.422,0.941-0.942C50.942,74.296,50.519,73.873,50,73.873z"></path><path display="inline" d="M63.804,82.5H36.196c-2.375,0-4.306-1.932-4.306-4.306V21.806c0-2.375,1.932-4.306,4.306-4.306h27.608   c2.375,0,4.306,1.932,4.306,4.306v56.388C68.11,80.568,66.178,82.5,63.804,82.5z M36.196,20.591c-0.67,0-1.215,0.545-1.215,1.215   v56.388c0,0.67,0.545,1.215,1.215,1.215h27.608c0.67,0,1.215-0.545,1.215-1.215V21.806c0-0.67-0.545-1.215-1.215-1.215H36.196z"></path><rect x="44.196" y="22.958" display="inline" width="4.259" height="22.086"></rect><path display="inline" d="M59.172,45.044h3.417V24.503c0-0.853-0.692-1.545-1.545-1.545h-1.871V45.044z"></path><rect x="51.546" y="22.958" display="inline" width="4.535" height="22.086"></rect><path display="inline" d="M59.172,48.135V52.3c0,0.226,0.184,0.41,0.41,0.41c0.853,0,1.545,0.692,1.545,1.545   s-0.692,1.545-1.545,1.545c-1.93,0-3.501-1.571-3.501-3.501v-4.165h-4.535v6.121h-3.091v-6.121h-4.259v22.086h4.259v-4.35   c0-0.226-0.184-0.41-0.41-0.41c-0.853,0-1.545-0.692-1.545-1.545c0-0.853,0.692-1.545,1.545-1.545c1.93,0,3.501,1.571,3.501,3.501   v4.35h4.535v-4.35h3.091v4.35h1.871c0.853,0,1.545-0.692,1.545-1.545V48.135H59.172z"></path><path display="inline" d="M41.105,48.135h-3.693v20.541c0,0.853,0.692,1.545,1.545,1.545h2.148V48.135z"></path><path display="inline" d="M41.105,45.044V22.958h-2.148c-0.853,0-1.545,0.692-1.545,1.545v20.541H41.105z"></path></g><g display="none"><path display="inline" d="M36.64,27.604c-0.185,0.189-0.293,0.446-0.293,0.711c0,0.265,0.108,0.522,0.293,0.711   c0.189,0.185,0.446,0.293,0.711,0.293c0.265,0,0.522-0.108,0.711-0.293c0.185-0.189,0.293-0.446,0.293-0.711   c0-0.265-0.108-0.522-0.293-0.711C37.688,27.23,37.013,27.23,36.64,27.604z"></path><path display="inline" d="M36.64,74.588c-0.185,0.189-0.293,0.446-0.293,0.711c0,0.265,0.108,0.522,0.293,0.711   c0.189,0.185,0.446,0.293,0.711,0.293c0.265,0,0.522-0.108,0.711-0.293c0.185-0.189,0.293-0.446,0.293-0.711   c0-0.265-0.108-0.522-0.293-0.711C37.688,74.215,37.013,74.215,36.64,74.588z"></path><path display="inline" d="M32.295,26.874c0.275,0.413,0.437,0.908,0.437,1.441v1.004v45.98c0,2.547,2.072,4.618,4.618,4.618   s4.618-2.072,4.618-4.618v-43.37c0-1.439,1.171-2.61,2.61-2.61c1.439,0,2.61,1.171,2.61,2.61c0,0.555,0.449,1.004,1.004,1.004   h28.913c0.555,0,1.004-0.449,1.004-1.004v-7.228c0-0.555-0.449-1.004-1.004-1.004H37.352c0,0-0.001,0-0.002,0l-0.002,0h-7.227   h-1.004h-2.61c-1.439,0-2.61-1.171-2.61-2.61c0-0.555-0.449-1.004-1.004-1.004s-1.004,0.449-1.004,1.004   c0,2.547,2.072,4.618,4.618,4.618h2.61h1.004c0.533,0,1.027,0.162,1.441,0.437L32.295,26.874z M39.961,75.299   c0,1.439-1.171,2.61-2.61,2.61s-2.61-1.171-2.61-2.61v-45.98v-1.004v0c0-1.439,1.17-2.609,2.608-2.61h0.004   c1.438,0.001,2.608,1.171,2.608,2.61V75.299z M48.371,29.319H58.62l1.606,1.606H49.087C48.956,30.337,48.703,29.799,48.371,29.319z    M65.848,29.319l1.606,1.606h-4.389l-1.606-1.606H65.848z M70.294,30.925l-1.606-1.606h7.415v1.606H70.294z M76.102,27.311h-9.837   c-0.001,0-0.002,0-0.002,0l-7.227,0c-0.001,0-0.002,0-0.003,0H44.579h-2.727c-0.13-0.584-0.368-1.128-0.697-1.606h34.948V27.311z"></path><path display="inline" d="M37.35,34.539c-0.555,0-1.004,0.449-1.004,1.004v32.528c0,0.555,0.449,1.004,1.004,1.004   s1.004-0.449,1.004-1.004V35.543C38.354,34.989,37.905,34.539,37.35,34.539z"></path></g><g display="none"><circle display="inline" cx="20.584" cy="50" r="3.677"></circle><path display="inline" d="M79.416,46.323H35.292c-2.031,0-3.677,1.646-3.677,3.677c0,2.031,1.646,3.677,3.677,3.677h44.124   c2.031,0,3.677-1.646,3.677-3.677C83.093,47.969,81.447,46.323,79.416,46.323z"></path><path display="inline" d="M35.292,16.907c-2.031,0-3.677,1.646-3.677,3.677c0,2.031-1.646,3.677-3.677,3.677   c-6.092,0-11.031,4.939-11.031,11.031c0,2.031,1.646,3.677,3.677,3.677s3.677-1.646,3.677-3.677c0-2.031,1.646-3.677,3.677-3.677   c6.092,0,11.031-4.939,11.031-11.031C38.969,18.553,37.323,16.907,35.292,16.907z"></path></g><g><path d="M32.3,82.912c-0.216,0.22-0.342,0.52-0.342,0.829c0,0.309,0.127,0.609,0.342,0.829c0.22,0.216,0.52,0.342,0.829,0.342   c0.309,0,0.609-0.127,0.83-0.342c0.216-0.22,0.342-0.52,0.342-0.829c0-0.309-0.127-0.609-0.342-0.829   C33.523,82.476,32.74,82.476,32.3,82.912z"></path><path d="M66.041,82.912c-0.216,0.22-0.342,0.52-0.342,0.829c0,0.309,0.127,0.609,0.342,0.829c0.22,0.216,0.52,0.342,0.829,0.342   c0.309,0,0.609-0.127,0.829-0.342c0.216-0.22,0.342-0.52,0.342-0.829c0-0.309-0.127-0.609-0.342-0.829   C67.264,82.476,66.477,82.476,66.041,82.912z"></path><path d="M37.347,65.699c-0.647,0-1.172,0.524-1.172,1.172v4.218c0,0.647,0.524,1.172,1.172,1.172s1.172-0.524,1.172-1.172v-4.218   C38.519,66.224,37.994,65.699,37.347,65.699z"></path><path d="M92.177,86.788H71.312c0.384-0.558,0.664-1.192,0.816-1.875h3.178c0.647,0,1.172-0.524,1.172-1.172V68.042h7.263   c0.001,0,0.001,0,0.002,0c0.137,0,0.272-0.033,0.405-0.082c0.041-0.015,0.078-0.035,0.117-0.055   c0.042-0.021,0.087-0.033,0.127-0.06c0.032-0.021,0.049-0.055,0.079-0.079c0.063-0.051,0.117-0.106,0.169-0.169   c0.047-0.058,0.088-0.116,0.122-0.181c0.035-0.065,0.061-0.131,0.083-0.202c0.024-0.078,0.039-0.153,0.047-0.234   c0.004-0.038,0.022-0.071,0.022-0.109c0-0.037-0.018-0.068-0.021-0.104c-0.007-0.079-0.023-0.153-0.046-0.23   c-0.023-0.077-0.051-0.148-0.089-0.218c-0.017-0.032-0.02-0.067-0.04-0.098l-7.221-10.832h2.029c0.647,0,1.172-0.524,1.172-1.172   V16.258c0-0.647-0.524-1.172-1.172-1.172H55.389V7.823c0-0.647-0.524-1.172-1.172-1.172H33.129c-0.647,0-1.172,0.524-1.172,1.172   V27.74H16.258c-0.647,0-1.172,0.524-1.172,1.172v25.306c0,0.647,0.524,1.172,1.172,1.172h7.264v6.092h-7.264   c-0.444,0-0.849,0.251-1.048,0.648l-4.218,8.435c-0.081,0.163-0.124,0.342-0.124,0.524v12.653c0,0.647,0.524,1.172,1.172,1.172   h3.178c0.152,0.682,0.432,1.316,0.816,1.875H7.823c-0.647,0-1.172,0.524-1.172,1.172c0,0.647,0.524,1.172,1.172,1.172h84.354   c0.647,0,1.172-0.524,1.172-1.172C93.349,87.312,92.824,86.788,92.177,86.788z M23.522,72.26v1.875h-10.31V72.26H23.522z    M23.522,76.478v1.875h-10.31v-1.875H23.522z M25.865,72.26h6.092v6.224c-2.032,0.453-3.633,2.054-4.086,4.086h-2.007V72.26z    M31.958,63.825v6.092h-5.368l3.046-6.092H31.958z M48.828,17.43v22.963h-1.875V28.911c0-0.647-0.524-1.172-1.172-1.172h-3.046   V17.43H48.828z M74.679,55.389l6.873,10.31H54.845l-6.873-10.31h6.246h16.871H74.679z M34.301,53.046v-10.31h6.092v10.31H34.301z    M53.046,42.736v10.31h-10.31v-10.31H53.046z M55.389,53.046V41.565c0-0.647-0.524-1.172-1.172-1.172h-3.046V17.43h6.092v35.616   H55.389z M44.611,30.083v10.31h-3.046h-8.435c-0.647,0-1.172,0.524-1.172,1.172v11.481h-1.875V30.083H44.611z M41.565,55.389h3.046   V82.57h-1.875V62.653c0-0.647-0.524-1.172-1.172-1.172H36.41v-6.092H41.565z M38.386,82.57c-0.453-2.032-2.054-3.633-4.086-4.086   v-7.396v-7.264h6.092V82.57H38.386z M27.872,84.913c0.152,0.682,0.432,1.316,0.816,1.875h-3.77   c0.384-0.558,0.664-1.192,0.816-1.875H27.872z M30.083,83.742c0-1.68,1.367-3.046,3.046-3.046c1.68,0,3.046,1.367,3.046,3.046   c0,1.68-1.367,3.046-3.046,3.046C31.45,86.788,30.083,85.421,30.083,83.742z M38.386,84.913h3.178H50h11.614   c0.152,0.682,0.432,1.316,0.816,1.875H37.571C37.955,86.229,38.235,85.595,38.386,84.913z M63.825,83.742   c0-1.68,1.367-3.046,3.046-3.046c1.68,0,3.046,1.367,3.046,3.046c0,1.68-1.367,3.046-3.046,3.046   C65.191,86.788,63.825,85.421,63.825,83.742z M74.135,82.57h-2.007c-0.537-2.41-2.688-4.218-5.257-4.218   c-2.569,0-4.72,1.808-5.257,4.218H50h-3.046V58.087l1.875,2.812v10.19c0,0.647,0.524,1.172,1.172,1.172s1.172-0.524,1.172-1.172   v-6.675l1.875,2.812v3.863c0,0.647,0.524,1.172,1.172,1.172s1.172-0.524,1.172-1.172v-3.046h1.875v3.046   c0,0.647,0.524,1.172,1.172,1.172s1.172-0.524,1.172-1.172v-3.046h1.875v3.046c0,0.647,0.524,1.172,1.172,1.172   s1.172-0.524,1.172-1.172v-3.046h1.875v3.046c0,0.647,0.524,1.172,1.172,1.172c0.647,0,1.172-0.524,1.172-1.172v-3.046h1.875v3.046   c0,0.647,0.524,1.172,1.172,1.172c0.647,0,1.172-0.524,1.172-1.172v-3.046h1.875V82.57z M78.352,36.175h-10.31v-6.092h10.31V36.175   z M78.352,27.74H66.871c-0.647,0-1.172,0.524-1.172,1.172v8.435c0,0.647,0.524,1.172,1.172,1.172h11.482v14.528h-3.046h-4.218   H59.607V17.43h18.745V27.74z M53.046,15.087h-6.092V8.995h6.092V15.087z M34.301,8.995h10.31v6.092h-3.046   c-0.647,0-1.172,0.524-1.172,1.172V27.74h-6.092V8.995z M21.648,30.083h1.875v6.092h-1.875V30.083z M17.43,30.083h1.875v7.264   c0,0.647,0.524,1.172,1.172,1.172h4.218c0.311,0,0.609-0.123,0.828-0.343c0.22-0.22,0.343-0.518,0.343-0.828l0-7.264h1.875v22.963   h-3.046h0H17.43V30.083z M25.865,55.389h8.201v6.092h-8.201V55.389z M16.982,63.825h10.033l-3.046,6.092H13.936L16.982,63.825z    M13.212,80.695h10.31v1.875h-10.31V80.695z M17.666,84.913h5.621c-0.46,1.099-1.546,1.875-2.81,1.875   C19.212,86.788,18.126,86.013,17.666,84.913z"></path><path d="M92.177,91.005H7.823c-0.647,0-1.172,0.524-1.172,1.172c0,0.647,0.524,1.172,1.172,1.172h84.354   c0.647,0,1.172-0.524,1.172-1.172C93.349,91.53,92.824,91.005,92.177,91.005z"></path><path d="M79.524,82.57c-0.647,0-1.172,0.524-1.172,1.172c0,0.647,0.524,1.172,1.172,1.172h4.218c0.647,0,1.172-0.524,1.172-1.172   c0-0.647-0.524-1.172-1.172-1.172H79.524z"></path><path d="M89.131,79.524c0-0.647-0.524-1.172-1.172-1.172h-8.435c-0.647,0-1.172,0.524-1.172,1.172c0,0.647,0.524,1.172,1.172,1.172   h8.435C88.606,80.695,89.131,80.171,89.131,79.524z"></path><path d="M78.352,75.306c0,0.647,0.524,1.172,1.172,1.172h12.653c0.647,0,1.172-0.524,1.172-1.172c0-0.647-0.524-1.172-1.172-1.172   H79.524C78.877,74.135,78.352,74.659,78.352,75.306z"></path></g></g>
</svg>
</g><g opacity="1" transform="rotate(0 404.6262 425.3207)">
<svg width="346.7296" height="40" x="404.6262" y="425.3207" version="1.1" preserveAspectRatio="none" viewBox="0.2 -25.44 220.52 25.44">
  <g transform="matrix(1 0 0 1 0 0)" class="companyName"><path id="id-D6z1nYkh13" d="M0.20-25.44L15.24-25.44L15.24-21.24L10.56-21.24L10.56 0L4.84 0L4.84-21.24L0.20-21.24L0.20-25.44Z M23.76-10.84L23.76-4.20L31.92-4.20L31.92 0L18.04 0L18.04-25.44L31.60-25.44L31.60-21.24L23.76-21.24L23.76-15.04L30.44-15.04L30.44-10.84L23.76-10.84Z M34.52-25.44L49.04-25.44L49.04-21.24L39.96-4.20L48.80-4.20L48.80 0L34.04 0L34.04-4.20L43.12-21.24L34.52-21.24L34.52-25.44Z M50.68-25.44L65.72-25.44L65.72-21.24L61.04-21.24L61.04 0L55.32 0L55.32-21.24L50.68-21.24L50.68-25.44Z M74.24-10.84L74.24-4.20L82.40-4.20L82.40 0L68.52 0L68.52-25.44L82.08-25.44L82.08-21.24L74.24-21.24L74.24-15.04L80.92-15.04L80.92-10.84L74.24-10.84Z M85.00-25.44L99.52-25.44L99.52-21.24L90.44-4.20L99.28-4.20L99.28 0L84.52 0L84.52-4.20L93.60-21.24L85.00-21.24L85.00-25.44Z M115.76-17.04L115.76 0L110.72 0L110.72-25.44L116.96-25.44L121.16-11.04L125.36-25.44L131.60-25.44L131.60 0L126.56 0L126.56-17.08L123.28-5.52L119.04-5.52L115.76-17.04Z M140.92-25.44L140.92-25.44L146.28-25.44Q151.32-25.44 151.32-21.04L151.32-21.04L151.32-4.44Q151.32 0 146.28 0L146.28 0L140.92 0Q135.84 0 135.84-4.44L135.84-4.44L135.84-21.04Q135.84-25.44 140.92-25.44ZM145.60-5.20L145.60-5.20L145.60-20.24Q145.60-21.24 144.56-21.24L144.56-21.24L142.64-21.24Q141.56-21.24 141.56-20.24L141.56-20.24L141.56-5.20Q141.56-4.20 142.64-4.20L142.64-4.20L144.56-4.20Q145.60-4.20 145.60-5.20Z M163.12-6.56L166.32-25.44L172.24-25.44L166.64 0L159.64 0L154-25.44L159.96-25.44L163.12-6.56Z M175.24 0L175.24-25.44L180.92-25.44L180.92 0L175.24 0Z M196.08-10.24L196.08-25.44L201.32-25.44L201.32 0L196.20 0L190.64-15.24L190.64 0L185.44 0L185.44-25.44L190.60-25.44L196.08-10.24Z M220.72-21.04L220.72-17.20L215.00-17.20L215.00-20.52Q215.00-21.52 213.92-21.52L213.92-21.52L212.28-21.52Q211.20-21.52 211.20-20.52L211.20-20.52L211.20-4.92Q211.20-4.36 211.44-4.14Q211.68-3.92 212.28-3.92L212.28-3.92L213.92-3.92Q214.52-3.92 214.76-4.14Q215.00-4.36 215.00-4.92L215.00-4.92L215.00-9.88L213.00-9.88L213.00-13.68L220.72-13.68L220.72-4.40Q220.72 0 215.68 0L215.68 0L210.52 0Q205.48 0 205.48-4.40L205.48-4.40L205.48-21.04Q205.48-25.44 210.52-25.44L210.52-25.44L215.68-25.44Q220.72-25.44 220.72-21.04L220.72-21.04Z"/></g>
</svg>
</g></svg></svg>